<svg id="Coding-Icon" xmlns="http://www.w3.org/2000/svg" width="100" height="100" viewBox="0 0 100 100">
  <g id="Ellipse_62" data-name="Ellipse 62" fill="#352d80" stroke="#fff" stroke-width="8">
    <circle cx="50" cy="50" r="50" stroke="none"/>
    <circle cx="50" cy="50" r="46" fill="none"/>
  </g>
  <g id="code-square" transform="translate(24 24)">
    <g id="Group_1534" data-name="Group 1534">
      <path id="Path_779" data-name="Path 779" d="M45.777,3.27a3.27,3.27,0,0,1,3.27,3.27V45.777a3.27,3.27,0,0,1-3.27,3.27H6.54a3.27,3.27,0,0,1-3.27-3.27V6.54A3.27,3.27,0,0,1,6.54,3.27ZM6.54,0A6.54,6.54,0,0,0,0,6.54V45.777a6.54,6.54,0,0,0,6.54,6.54H45.777a6.54,6.54,0,0,0,6.54-6.54V6.54A6.54,6.54,0,0,0,45.777,0Z" fill="#fff"/>
      <path id="Path_780" data-name="Path 780" d="M48.594,54.47a1.635,1.635,0,0,1,0,2.315l-8.655,8.652,8.655,8.652A1.637,1.637,0,1,1,46.279,76.4L36.47,66.594a1.635,1.635,0,0,1,0-2.315l9.809-9.809a1.635,1.635,0,0,1,2.315,0Zm7.494,0a1.635,1.635,0,0,0,0,2.315l8.655,8.652-8.655,8.652A1.637,1.637,0,0,0,58.4,76.4l9.809-9.809a1.635,1.635,0,0,0,0-2.315L58.4,54.47a1.635,1.635,0,0,0-2.315,0Z" transform="translate(-26.183 -39.278)" fill="#fff"/>
    </g>
  </g>
</svg>
