<svg xmlns="http://www.w3.org/2000/svg" xmlns:xlink="http://www.w3.org/1999/xlink" width="606" height="650" viewBox="0 0 606 650">
  <defs>
    <clipPath id="clip-path">
      <rect id="Rectangle_739" data-name="Rectangle 739" width="606" height="650" transform="translate(0 0)" fill="none"/>
    </clipPath>
    <clipPath id="clip-path-2">
      <rect id="Rectangle_725" data-name="Rectangle 725" width="606" height="650" fill="none"/>
    </clipPath>
    <clipPath id="clip-path-5">
      <rect id="Rectangle_726" data-name="Rectangle 726" width="46.952" height="63.807" fill="none"/>
    </clipPath>
    <clipPath id="clip-path-7">
      <rect id="Rectangle_728" data-name="Rectangle 728" width="255.569" height="145.86" fill="none"/>
    </clipPath>
    <clipPath id="clip-path-8">
      <rect id="Rectangle_729" data-name="Rectangle 729" width="10.246" height="382.12" fill="none"/>
    </clipPath>
    <clipPath id="clip-path-10">
      <rect id="Rectangle_731" data-name="Rectangle 731" width="93.064" height="138.991" fill="none"/>
    </clipPath>
    <clipPath id="clip-path-11">
      <rect id="Rectangle_732" data-name="Rectangle 732" width="91.426" height="123.86" fill="none"/>
    </clipPath>
    <clipPath id="clip-path-13">
      <rect id="Rectangle_734" data-name="Rectangle 734" width="44.495" height="60.492" fill="none"/>
    </clipPath>
    <clipPath id="clip-path-15">
      <rect id="Rectangle_736" data-name="Rectangle 736" width="23.624" height="50.445" fill="none"/>
    </clipPath>
    <clipPath id="clip-path-16">
      <rect id="Rectangle_737" data-name="Rectangle 737" width="35.176" height="42.998" fill="none"/>
    </clipPath>
  </defs>
  <g id="Group_1809" data-name="Group 1809" clip-path="url(#clip-path)">
    <g id="Group_1774" data-name="Group 1774" transform="translate(0 0)">
      <g id="Group_1773" data-name="Group 1773" clip-path="url(#clip-path-2)">
        <path id="Path_787" data-name="Path 787" d="M26.308,409.111l5.492,3.1a7.124,7.124,0,0,0,6.364-.006L291.99,267.354c1.757-1,1.754-2.624,0-3.621l-5.454-3.077a7.131,7.131,0,0,0-6.366.009L26.3,405.488c-1.755,1-1.754,2.624,0,3.622" transform="translate(11.629 117.516)" fill="#968fe1"/>
        <path id="Path_788" data-name="Path 788" d="M354.872,412.453c-30.25,16.4-79.3,16.4-109.547,0s-30.25-42.975,0-59.372,79.3-16.392,109.547,0,30.25,42.979,0,59.372" transform="translate(104.289 154.065)" fill="#968fe1"/>
        <path id="Path_789" data-name="Path 789" d="M397.637,330.612c-23.338,12.649-61.176,12.649-84.514,0s-23.339-33.154,0-45.8,61.176-12.646,84.514,0,23.338,33.159,0,45.8" transform="translate(138.502 124.481)" fill="#968fe1"/>
      </g>
      <g id="Group_1772" data-name="Group 1772">
        <g id="Group_1771" data-name="Group 1771" clip-path="url(#clip-path-2)">
          <path id="Path_786" data-name="Path 786" d="M88.76,499.682c118.346,61.654,310.222,61.655,428.567,0s118.346-161.618,0-223.272-310.222-61.655-428.569,0-118.345,161.617,0,223.272" transform="translate(-0.086 104.076)" fill="#eceafa"/>
        </g>
      </g>
    </g>
    <g id="Group_1779" data-name="Group 1779" transform="translate(0 0)">
      <g id="Group_1778" data-name="Group 1778" clip-path="url(#clip-path-2)">
        <path id="Path_790" data-name="Path 790" d="M356.2,289.928c-.09-7.418,5.15-22.846,12.82-32.569s19.826-16.91,28.558-14.072c8.133,2.642,7.382,13.156-2.359,20.232s-24.409,16-28.583,28.078l-8.888,14.871Z" transform="translate(166.905 109.721)" fill="#27debf"/>
        <g id="Group_1777" data-name="Group 1777" transform="translate(523.108 352.382)" opacity="0.1">
          <g id="Group_1776" data-name="Group 1776">
            <g id="Group_1775" data-name="Group 1775" clip-path="url(#clip-path-5)">
              <path id="Path_791" data-name="Path 791" d="M356.2,289.928c-.09-7.418,5.15-22.846,12.82-32.569s19.826-16.91,28.558-14.072c8.133,2.642,7.382,13.156-2.359,20.232s-24.409,16-28.583,28.078l-8.888,14.871Z" transform="translate(-356.203 -242.661)"/>
            </g>
          </g>
        </g>
        <path id="Path_792" data-name="Path 792" d="M356.1,298.518a.548.548,0,0,0,.489-.441c4.716-25.379,25.187-46.206,37.534-50.9a.542.542,0,1,0-.394-1.011c-12.582,4.783-33.431,25.951-38.218,51.716a.54.54,0,0,0,.439.63.524.524,0,0,0,.15.007" transform="translate(166.577 111.287)" fill="#fff"/>
        <path id="Path_793" data-name="Path 793" d="M359.24,306.285c1.153-4.183,6.223-11.125,14.485-16.908,9.142-6.4,20.772-9.427,23.4-14.352,3.159-5.917-1.92-11.412-11.376-10.139s-25.948,14.242-28.373,33.5Z" transform="translate(167.456 119.681)" fill="#27debf"/>
        <path id="Path_794" data-name="Path 794" d="M357.553,300.343a.548.548,0,0,0,.469-.364c7.591-21.784,24.24-29.6,31.983-30.683a.545.545,0,0,0,.466-.613.539.539,0,0,0-.62-.46c-8.562,1.2-25.118,9.169-32.866,31.4a.546.546,0,0,0,.568.716" transform="translate(167.257 121.27)" fill="#fff"/>
      </g>
    </g>
    <g id="Group_1787" data-name="Group 1787" transform="translate(0 0)">
      <g id="Group_1786" data-name="Group 1786" clip-path="url(#clip-path-2)">
        <path id="Path_795" data-name="Path 795" d="M31.932,522.909l-1.115-.636a7.04,7.04,0,0,1-3.228-5.529V144.69a7.045,7.045,0,0,1,3.228-5.53L273.342.763a7.218,7.218,0,0,1,6.457,0l1.115.637a7.035,7.035,0,0,1,3.228,5.527V378.985a7.038,7.038,0,0,1-3.228,5.527L38.389,522.909a7.209,7.209,0,0,1-6.457,0" transform="translate(12.848 0.06)" fill="#5844e2"/>
        <g id="Group_1780" data-name="Group 1780" transform="translate(41.391 0.061)" clip-path="url(#clip-path-7)">
          <path id="Path_796" data-name="Path 796" d="M283.807,6.414c-.22-1.655-1.573-2.256-3.2-1.337L38.079,143.488a6.62,6.62,0,0,0-2.283,2.374l-7.557-4.312a6.515,6.515,0,0,1,2.283-2.39L273.036.765a7.206,7.206,0,0,1,6.46,0l1.115.636a7.141,7.141,0,0,1,3.2,5.013" transform="translate(-28.238 -0.001)" fill="#352d80"/>
        </g>
        <g id="Group_1783" data-name="Group 1783" transform="translate(40.444 141.609)" clip-path="url(#clip-path-8)">
          <path id="Path_797" data-name="Path 797" d="M37.839,479.1a7.25,7.25,0,0,1-5.9-.251l-1.132-.634a7.048,7.048,0,0,1-3.211-5.532V100.634a6.332,6.332,0,0,1,.946-3.142L36.1,101.8a6.62,6.62,0,0,0-.946,3.142V477.014c0,1.822,1.166,2.674,2.688,2.089" transform="translate(-27.593 -97.492)" fill="#4338ca"/>
        </g>
        <path id="Path_798" data-name="Path 798" d="M53.6,331.316l-1.115-.636a7.04,7.04,0,0,1-3.228-5.529V258.279a7.038,7.038,0,0,1,3.228-5.527L272.67,126.974a7.209,7.209,0,0,1,6.457,0l1.115.636a7.037,7.037,0,0,1,3.228,5.527V200.01a7.038,7.038,0,0,1-3.228,5.527L60.057,331.316a7.209,7.209,0,0,1-6.457,0" transform="translate(23.006 57.095)" fill="#ebebeb"/>
        <path id="Path_799" data-name="Path 799" d="M283.135,132.624c-.22-1.655-1.573-2.256-3.2-1.337L59.747,257.078a6.621,6.621,0,0,0-2.283,2.374l-7.558-4.312a6.527,6.527,0,0,1,2.283-2.39L272.364,126.975a7.206,7.206,0,0,1,6.46,0l1.115.636a7.141,7.141,0,0,1,3.2,5.013" transform="translate(23.311 57.095)" fill="#fafafa"/>
        <path id="Path_800" data-name="Path 800" d="M59.508,291.437a7.244,7.244,0,0,1-5.9-.251l-1.132-.634a7.05,7.05,0,0,1-3.212-5.532V218.152a6.33,6.33,0,0,1,.947-3.142l7.557,4.312a6.62,6.62,0,0,0-.946,3.142v66.884c0,1.822,1.166,2.674,2.688,2.089" transform="translate(23.009 97.225)" fill="#e0e0e0"/>
        <path id="Path_801" data-name="Path 801" d="M85.079,214.226c12.558-7.167,22.739-1.591,22.737,12.456s-10.194,31.126-22.764,38.15-22.764,1.442-22.756-12.46,10.224-30.979,22.783-38.146" transform="translate(29.119 95.458)" fill="#4338ca"/>
        <path id="Path_802" data-name="Path 802" d="M53.6,393.733l-1.115-.636a7.04,7.04,0,0,1-3.228-5.529V320.7a7.035,7.035,0,0,1,3.228-5.527L272.67,189.392a7.209,7.209,0,0,1,6.457,0l1.115.636a7.037,7.037,0,0,1,3.228,5.527v66.874a7.038,7.038,0,0,1-3.228,5.527L60.057,393.733a7.209,7.209,0,0,1-6.457,0" transform="translate(23.006 85.303)" fill="#ebebeb"/>
        <path id="Path_803" data-name="Path 803" d="M283.135,195.042c-.22-1.655-1.573-2.256-3.2-1.337L59.747,319.5a6.62,6.62,0,0,0-2.283,2.374l-7.558-4.312a6.526,6.526,0,0,1,2.283-2.39L272.364,189.393a7.206,7.206,0,0,1,6.46,0l1.115.636a7.141,7.141,0,0,1,3.2,5.013" transform="translate(23.311 85.303)" fill="#fafafa"/>
        <path id="Path_804" data-name="Path 804" d="M59.508,353.855a7.25,7.25,0,0,1-5.9-.251l-1.132-.634a7.049,7.049,0,0,1-3.212-5.532V280.57a6.331,6.331,0,0,1,.947-3.142l7.557,4.312a6.62,6.62,0,0,0-.946,3.142v66.884c0,1.822,1.166,2.674,2.688,2.089" transform="translate(23.009 125.432)" fill="#e0e0e0"/>
        <path id="Path_805" data-name="Path 805" d="M85.079,276.644c12.558-7.168,22.739-1.591,22.737,12.454S97.622,320.226,85.052,327.25,62.289,328.692,62.3,314.79s10.224-30.979,22.783-38.146" transform="translate(29.119 123.665)" fill="#4338ca"/>
        <path id="Path_806" data-name="Path 806" d="M53.6,226.93l-1.115-.636a7.04,7.04,0,0,1-3.228-5.529V153.894a7.038,7.038,0,0,1,3.228-5.527L272.67,22.589a7.209,7.209,0,0,1,6.457,0l1.115.636a7.038,7.038,0,0,1,3.228,5.527V95.626a7.038,7.038,0,0,1-3.228,5.527L60.057,226.93a7.209,7.209,0,0,1-6.457,0" transform="translate(23.006 9.923)" fill="#ebebeb"/>
        <path id="Path_807" data-name="Path 807" d="M283.135,28.239c-.22-1.655-1.573-2.256-3.2-1.337L59.747,152.693a6.62,6.62,0,0,0-2.283,2.374l-7.558-4.312a6.527,6.527,0,0,1,2.283-2.39L272.364,22.59a7.206,7.206,0,0,1,6.46,0l1.115.636a7.141,7.141,0,0,1,3.2,5.013" transform="translate(23.311 9.923)" fill="#fafafa"/>
        <path id="Path_808" data-name="Path 808" d="M59.508,187.052a7.244,7.244,0,0,1-5.9-.251l-1.132-.635a7.05,7.05,0,0,1-3.212-5.532V113.767a6.33,6.33,0,0,1,.947-3.142l7.557,4.312a6.62,6.62,0,0,0-.946,3.142v66.884c0,1.822,1.166,2.674,2.688,2.089" transform="translate(23.009 50.052)" fill="#e0e0e0"/>
        <path id="Path_809" data-name="Path 809" d="M85.079,109.841c12.558-7.168,22.739-1.591,22.737,12.454s-10.194,31.128-22.764,38.152-22.764,1.442-22.756-12.46,10.224-30.979,22.783-38.146" transform="translate(29.119 48.285)" fill="#4338ca"/>
        <path id="Path_810" data-name="Path 810" d="M64.136,285.408l-1.115-.636a7.04,7.04,0,0,1-3.228-5.529V212.372a7.035,7.035,0,0,1,3.228-5.527L283.206,81.067a7.212,7.212,0,0,1,6.458,0l1.113.636a7.038,7.038,0,0,1,3.228,5.527V154.1a7.038,7.038,0,0,1-3.228,5.527L70.593,285.408a7.209,7.209,0,0,1-6.457,0" transform="translate(27.946 36.349)" fill="#5844e2"/>
        <path id="Path_811" data-name="Path 811" d="M293.671,86.717c-.22-1.655-1.573-2.256-3.2-1.337L70.283,211.171A6.619,6.619,0,0,0,68,213.545l-7.558-4.312a6.526,6.526,0,0,1,2.283-2.39L282.9,81.068a7.206,7.206,0,0,1,6.46,0l1.115.636a7.141,7.141,0,0,1,3.2,5.013" transform="translate(28.25 36.349)" fill="#352d80"/>
        <path id="Path_812" data-name="Path 812" d="M70.044,245.53a7.25,7.25,0,0,1-5.9-.251l-1.132-.634a7.05,7.05,0,0,1-3.212-5.532V172.245a6.33,6.33,0,0,1,.947-3.142l7.557,4.312a6.616,6.616,0,0,0-.946,3.142v66.884c0,1.822,1.166,2.674,2.688,2.089" transform="translate(27.948 76.479)" fill="#352d80"/>
        <path id="Path_813" data-name="Path 813" d="M95.615,168.319c12.558-7.167,22.739-1.591,22.737,12.456s-10.194,31.126-22.764,38.15-22.764,1.442-22.756-12.46,10.224-30.978,22.783-38.146" transform="translate(34.058 74.712)" fill="#f5f5f5"/>
        <path id="Path_814" data-name="Path 814" d="M93.015,212.544a2.511,2.511,0,0,1-2.789.138l-9.988-7.472c-1.335-.993-1.168-3.749.375-6.152s3.875-3.54,5.2-2.541l6.961,5.2,19.332-41.073c1.209-2.564,3.516-4.283,5.157-3.846s2,2.876.79,5.437L95.989,209.128a7.968,7.968,0,0,1-2.827,3.332c-.048.029-.1.057-.147.084" transform="translate(37.108 70.889)" fill="#27debf"/>
      </g>
    </g>
    <g id="Group_1795" data-name="Group 1795" transform="translate(0 0)">
      <g id="Group_1794" data-name="Group 1794" clip-path="url(#clip-path-2)">
        <path id="Path_815" data-name="Path 815" d="M248.919,163.292l-6.385-3.644v.016c-2.777-1.577-6.172-.016-7.967,1.074l-3.983-2.274c-4.835-2.885-11.555,3.151-13.059,4.6l-1.723-.983v0c-5.128-3.056-14.441,5.119-14.441,5.119v-30.42l4.047-1.938-6.439-3.681-.015-.009-.044-.025v0c-1.479-.815-3.5-.684-5.74.592-4.525,2.583-8.194,8.864-8.194,14.028v70.518c-5.888-4.317-12.151-6.968-17.645-6a17.7,17.7,0,0,0-10.664,7.281c-2.71,4.722,1.761,7.685,7.522,14.2,5.708,6.454,10.743,14.226,15.944,19.021s8.97,6.043,8.97,6.043V266l6.328,3.611,41.818-31.088v-9.192s5.975-23.544,7.883-33.385c1.837-9.475,3.527-24.581.37-32.427l3.416-.229Z" transform="translate(72.98 59.09)" fill="#27debf"/>
        <g id="Group_1790" data-name="Group 1790" transform="translate(228.835 189.714)" opacity="0.4">
          <g id="Group_1789" data-name="Group 1789">
            <g id="Group_1788" data-name="Group 1788" clip-path="url(#clip-path-10)">
              <path id="Path_816" data-name="Path 816" d="M248.919,163.292l-6.385-3.644v.016c-2.777-1.577-6.172-.016-7.967,1.074l-3.983-2.274c-4.835-2.885-11.555,3.151-13.059,4.6l-1.723-.983v0c-5.128-3.056-14.441,5.119-14.441,5.119v-30.42l4.047-1.938-6.439-3.681-.015-.009-.044-.025v0c-1.479-.815-3.5-.684-5.74.592-4.525,2.583-8.194,8.864-8.194,14.028v70.518c-5.888-4.317-12.151-6.968-17.645-6a17.7,17.7,0,0,0-10.664,7.281c-2.71,4.722,1.761,7.685,7.522,14.2,5.708,6.454,10.743,14.226,15.944,19.021s8.97,6.043,8.97,6.043V266l6.328,3.611,41.818-31.088v-9.192s5.975-23.544,7.883-33.385c1.837-9.475,3.527-24.581.37-32.427l3.416-.229Z" transform="translate(-155.855 -130.624)" fill="#fff"/>
            </g>
          </g>
        </g>
        <path id="Path_817" data-name="Path 817" d="M201.749,217.027l-31.635-18.053-13.854-7.909c-1.763,4.261,2.512,7.248,7.927,13.369,5.708,6.454,10.744,14.226,15.944,19.021s8.97,6.043,8.97,6.043v9.192l6.328,3.611,9.239-6.868c-1.2-7.813-2.919-18.407-2.919-18.407" transform="translate(72.982 86.404)" fill="#27debf"/>
        <path id="Path_818" data-name="Path 818" d="M182.009,144.658l-6.328-3.611v73.968l6.328.161Z" transform="translate(82.275 63.8)" fill="#27debf"/>
        <path id="Path_819" data-name="Path 819" d="M215.8,159.007l4.9-3.575c-.106-.318-.206-.645-.325-.942l1.78-.12-3.931-.177-6.571-3.577a14.275,14.275,0,0,0-2.212,1.089l2.052,1.18Z" transform="translate(98.104 68.124)" fill="#27debf"/>
        <path id="Path_820" data-name="Path 820" d="M203.86,157.925l4.606-3.464-6.348-3.8a26.972,26.972,0,0,0-4.277,3.342l4.406,2.521Z" transform="translate(92.664 68.147)" fill="#27debf"/>
        <path id="Path_821" data-name="Path 821" d="M197.405,156.582l-6.276-3.631.025-.058v7.859l7.318-2.656Z" transform="translate(89.517 69.153)" fill="#27debf"/>
        <g id="Group_1793" data-name="Group 1793" transform="translate(228.838 204.846)" opacity="0.15">
          <g id="Group_1792" data-name="Group 1792">
            <g id="Group_1791" data-name="Group 1791" clip-path="url(#clip-path-11)">
              <path id="Path_822" data-name="Path 822" d="M201.749,217.027l-31.635-18.053-13.854-7.909c-1.763,4.261,2.512,7.248,7.927,13.369,5.708,6.454,10.744,14.226,15.944,19.021s8.97,6.043,8.97,6.043v9.192l6.328,3.611,9.239-6.868c-1.2-7.813-2.919-18.407-2.919-18.407" transform="translate(-155.857 -118.442)"/>
              <path id="Path_823" data-name="Path 823" d="M182.009,144.658l-6.328-3.611v73.968l6.328.161Z" transform="translate(-146.563 -141.046)"/>
              <path id="Path_824" data-name="Path 824" d="M215.8,159.007l4.9-3.575c-.106-.318-.206-.645-.325-.942l1.78-.12-3.931-.177-6.571-3.577a14.275,14.275,0,0,0-2.212,1.089l2.052,1.18Z" transform="translate(-130.735 -136.722)"/>
              <path id="Path_825" data-name="Path 825" d="M203.86,157.925l4.606-3.464-6.348-3.8a26.972,26.972,0,0,0-4.277,3.342l4.406,2.521Z" transform="translate(-136.175 -136.699)"/>
              <path id="Path_826" data-name="Path 826" d="M197.405,156.582l-6.276-3.631.025-.058v7.859l7.318-2.656Z" transform="translate(-139.321 -135.692)"/>
            </g>
          </g>
        </g>
        <path id="Path_827" data-name="Path 827" d="M193.411,268.492V259.3s-3.769-1.247-8.97-6.043S174.2,240.689,168.5,234.237c-5.759-6.512-10.232-9.475-7.522-14.2a17.694,17.694,0,0,1,10.664-7.28c5.495-.967,11.756,1.684,17.646,6V148.245c0-5.166,3.668-11.447,8.193-14.03s8.193-.488,8.193,4.677v30.8s11.291-9.912,15.853-3.833c0,0,11.092-11.486,16.1-1.784,0,0,8.145-6.5,11.817,1.044s1.909,23.48,0,33.32-7.883,33.384-7.883,33.384v9.192Z" transform="translate(75 60.213)" fill="#27debf"/>
        <path id="Path_828" data-name="Path 828" d="M191.154,172.829s1.028-14.053,6.251-17.4l-.187.052a34.289,34.289,0,0,0-6.065,4.118v-.266a.326.326,0,0,0,0,.266Z" transform="translate(89.517 70.302)" fill="#455a64"/>
        <path id="Path_829" data-name="Path 829" d="M201.939,156.772v12.857s1.442-13.22,4.44-16.414a26.662,26.662,0,0,0-4.44,3.557" transform="translate(94.585 69.299)" fill="#455a64"/>
        <path id="Path_830" data-name="Path 830" d="M212.9,155.063h0v12.9s.793-13,3.625-14.917a14.661,14.661,0,0,0-3.625,2.014" transform="translate(99.724 69.224)" fill="#455a64"/>
        <path id="Path_831" data-name="Path 831" d="M181.817,129.663h0c-1.016.579-1.84.235-1.84-.77v-10.2a3.769,3.769,0,0,1,1.84-2.869c1.016-.579,1.84-.235,1.84.77v10.2a3.769,3.769,0,0,1-1.84,2.869" transform="translate(84.289 52.273)" fill="#ebebeb"/>
        <path id="Path_832" data-name="Path 832" d="M173.642,138.372h0c-.718,1.23-1.884,1.895-2.6,1.485l-5.972-3.409c-.718-.409-.718-1.739,0-2.969s1.884-1.9,2.6-1.485l5.972,3.408c.718.411.718,1.739,0,2.971" transform="translate(77.046 59.654)" fill="#ebebeb"/>
        <path id="Path_833" data-name="Path 833" d="M170.255,151.231v.292a4.05,4.05,0,0,1-1.977,3.082l-8.171,4.664c-1.093.623-1.978.254-1.978-.826v-.292a4.048,4.048,0,0,1,1.978-3.082l8.171-4.664c1.091-.623,1.977-.253,1.977.826" transform="translate(74.046 67.893)" fill="#ebebeb"/>
        <path id="Path_834" data-name="Path 834" d="M196.076,136.534v-.292a4.047,4.047,0,0,1,1.977-3.081l8.171-4.665c1.093-.623,1.978-.254,1.978.826v.292a4.053,4.053,0,0,1-1.978,3.084l-8.171,4.662c-1.091.623-1.977.253-1.977-.826" transform="translate(91.836 57.991)" fill="#ebebeb"/>
        <path id="Path_835" data-name="Path 835" d="M191.9,128.834h0c-.718-.411-.718-1.741,0-2.971l5.972-10.224c.718-1.231,1.883-1.895,2.6-1.485s.718,1.739,0,2.971L194.5,127.349c-.718,1.23-1.884,1.895-2.6,1.485" transform="translate(89.626 51.592)" fill="#ebebeb"/>
      </g>
    </g>
    <g id="Group_1800" data-name="Group 1800" transform="translate(0 0)">
      <g id="Group_1799" data-name="Group 1799" clip-path="url(#clip-path-2)">
        <path id="Path_836" data-name="Path 836" d="M355.82,289.557V287.9c-.659,1.938-3.716,10.281-8.355,14.463-3.687,3.323-8.716,7.164-9.994,10.869-1.331,3.853,7,5.149,10.442,4.546,4-.7,9.18-2.946,12-6.368,1.981-2.407,3.243-5.259,4.658-7.152s4.677-4,5.442-6.2c.42-1.2-.079-3.837-.67-6.065-.54-2.043-1.128-4.289-1.835-4.1,0,.25,0,1.259,0,1.259-.848.931-3.2,1.853-5.843,1.953-1.71.065-5.859-.27-5.844-1.559" transform="translate(158.057 130.161)" fill="#263238"/>
        <path id="Path_837" data-name="Path 837" d="M342.365,308.235c1.143-1.009,2.294-1.995,3.337-2.936,3.24-2.921,5.709-7.875,7.128-11.257a15.7,15.7,0,0,0,1.226-6.079v-6.584h11.687V292.1h0v.286l-.059.029c-.563,2.4-5.925,8.787-8.973,12.951-2.043,2.792-5.925,6.343-10.562,6.955-4.395.581-6.642-.79-3.785-4.084" transform="translate(159.82 127.218)" fill="#ffa8a7"/>
        <path id="Path_838" data-name="Path 838" d="M324.782,281.713v-1.652c-.66,1.938-3.718,10.281-8.355,14.462-3.687,3.323-8.716,7.162-9.994,10.869-1.331,3.853,7,5.148,10.442,4.546,4-.7,9.18-2.946,12-6.368,1.981-2.407,3.243-5.259,4.658-7.152s4.677-4,5.442-6.2c.42-1.2-.079-3.839-.67-6.065-.542-2.043-1.128-4.289-1.835-4.1,0,.248,0,1.259,0,1.259-.848.931-3.2,1.853-5.843,1.953-1.71.065-5.859-.27-5.844-1.559" transform="translate(143.506 126.617)" fill="#263238"/>
        <path id="Path_839" data-name="Path 839" d="M311.327,300.39c1.144-1.009,2.294-1.995,3.337-2.936,3.24-2.921,5.709-7.875,7.128-11.255a15.681,15.681,0,0,0,1.226-6.081v-6.584h11.687V284.54l-.059.029c-.563,2.4-5.925,8.787-8.973,12.951-2.043,2.792-5.925,6.343-10.562,6.955-4.395.581-6.642-.79-3.785-4.084" transform="translate(145.269 123.672)" fill="#ffa8a7"/>
        <path id="Path_840" data-name="Path 840" d="M375.263,166.265c9.061,19.563-.328,88.475-.328,88.475.273,3.174,3.945,9.421,5.313,23.393,1.617,16.508-2.535,57.96-2.535,57.96a12.776,12.776,0,0,1-11.812.465s-11.139-62.431-13.234-78.845c-1.827-14.326-5.336-45.824-5.336-45.824l-9.972,45.745a84.324,84.324,0,0,1,3.159,14.139c.946,9.655-8.518,54.608-8.518,54.608s-4.033,1.462-11.689.348c0,0-3.347-59.655-4.23-71.286-1.481-19.532,3.767-80.479,7.392-92.041Z" transform="translate(147.975 73.903)" fill="#37474f"/>
        <path id="Path_841" data-name="Path 841" d="M343.988,204.879l-2.942-18.169s-12.445-2.55-18.09-7.794c0,0,5.922,7.281,14.717,9.665l3.3,13.989L335.2,244.929Z" transform="translate(151.318 80.914)" fill="#263238"/>
        <path id="Path_842" data-name="Path 842" d="M360.452,118.4a16.848,16.848,0,0,0-14.87,6.586C340.9,131.019,323,154.061,323,154.061s-26.384-13.053-27.683-14.6-.567-4.675-.211-6.4.949-5.548,1.337-6.622c.679-1.876-2.13-1.369-3.784.383-1.694,1.8-2.388,5.18-3.215,5.771s-7.1-6.55-10.149-9.992-4.476-5.856-6.517-4.434c-1.472,1.025-.527,3.069,1.657,6.02a38.085,38.085,0,0,1,2.822,3.909c.261.529-.545.951-.864,1.234-.592.523-1.642,1.379-1.716,2.2a7.106,7.106,0,0,1-.084,1.337c-.283.981-1.513,1.443-1.861,2.4-.25.7.026,1.475-.115,2.2-.091.468-.353.89-.438,1.359a3.234,3.234,0,0,0,.977,2.534c2.14,2.518,5.067,3.48,7.871,5.015,2.332,1.276,4.741,1.834,7.428,3.014s33.856,22.539,38.788,19.848,30.4-31.978,30.4-31.978c7.348-12.035,2.8-18.865,2.8-18.865" transform="translate(127.462 53.274)" fill="#ffa8a7"/>
        <path id="Path_843" data-name="Path 843" d="M357.294,118.73h0c11.617.79,12.432,6.336,15.339,12.4a19.451,19.451,0,0,1,.548,14.8l-8.095,23.148s3.791,9.057,8.191,17.613c-20.315,11.209-45.683,5.317-51.79-2.862-.259-1.735,1.312-15.3,2.278-24.157-3.578-8.873-4.522-14.5-3.013-20.36,2.8-10.886,13.681-21.493,18.494-21.106Z" transform="translate(149.961 53.474)" fill="#f5f5f5"/>
        <path id="Path_844" data-name="Path 844" d="M345.385,126.66h4.508a23.536,23.536,0,1,0-.128-47.068h-4.252a23.536,23.536,0,1,0-.128,47.068" transform="translate(150.702 36.028)" fill="#263238"/>
        <path id="Path_845" data-name="Path 845" d="M370.176,134.088h0a13.948,13.948,0,0,1-14.029-13.867V90.528a13.948,13.948,0,0,1,14.029,13.866Z" transform="translate(166.879 40.97)" fill="#263238"/>
        <path id="Path_846" data-name="Path 846" d="M359.019,86.9,355.5,92.487a3.254,3.254,0,0,0,4.58-.928,3.433,3.433,0,0,0-1.063-4.659" transform="translate(166.577 39.331)" fill="#263238"/>
        <path id="Path_847" data-name="Path 847" d="M329.316,86.75c-2.747,1.6-6.14,8.431-5.8,22.744.283,12.131,4.261,15.126,6.259,15.99s5.849.338,9.594-.279v7.28s-5.176,5.943-4.85,9.281,7.472,4.128,12.316.865a31.1,31.1,0,0,0,7.948-8.224v-17.6s2.528,3.336,6.664.621,4.292-9.432,1.887-11.845-7.585-1.648-8.551,1.684c0,0-5.972.216-13.924-4.1A22.083,22.083,0,0,1,329.316,86.75" transform="translate(151.568 39.263)" fill="#ffa8a7"/>
        <path id="Path_848" data-name="Path 848" d="M333.768,100.787a1.558,1.558,0,0,0,1.46,1.655,1.573,1.573,0,0,0,1.623-1.51,1.544,1.544,0,1,0-3.083-.145" transform="translate(156.386 44.923)" fill="#263238"/>
        <path id="Path_849" data-name="Path 849" d="M333.695,107.4l-3.584,1.13a1.851,1.851,0,0,0,2.331,1.272,1.943,1.943,0,0,0,1.253-2.4" transform="translate(154.673 48.594)" fill="#f28f8f"/>
        <path id="Path_850" data-name="Path 850" d="M325.252,98.021l3.123-2.139a1.836,1.836,0,0,0-2.594-.527,1.959,1.959,0,0,0-.529,2.666" transform="translate(152.249 43.004)" fill="#263238"/>
        <path id="Path_851" data-name="Path 851" d="M325.644,100.028a1.558,1.558,0,0,0,1.461,1.655,1.574,1.574,0,0,0,1.622-1.511,1.544,1.544,0,1,0-3.083-.144" transform="translate(152.577 44.579)" fill="#263238"/>
        <path id="Path_852" data-name="Path 852" d="M332.414,98.955l-.245,9.182-4.89-1.5Z" transform="translate(153.345 44.778)" fill="#f28f8f"/>
        <path id="Path_853" data-name="Path 853" d="M334.3,115.1c3.947-.511,12.066-2.817,13.331-5.989a8.2,8.2,0,0,1-2.847,4.048c-2.425,2.054-10.484,4.37-10.484,4.37Z" transform="translate(156.635 49.368)" fill="#f28f8f"/>
        <g id="Group_1798" data-name="Group 1798" transform="translate(479.832 185.863)" opacity="0.1">
          <g id="Group_1797" data-name="Group 1797">
            <g id="Group_1796" data-name="Group 1796" clip-path="url(#clip-path-13)">
              <path id="Path_854" data-name="Path 854" d="M348.967,184.447a12.117,12.117,0,0,0,9.143-14.785,5.119,5.119,0,0,0-.207-.632,4,4,0,0,0-4.114-2.7,11.717,11.717,0,0,0,5.078-7.482l2.471-14.509a16.732,16.732,0,0,0-.627-7.037l8.165-9.334,1.508,1.037a19.908,19.908,0,0,1-.333,12.505l-8.1,23.148s3.791,9.057,8.191,17.613c-14.971,8.26-32.678,7.229-43.406,2.843a59.9,59.9,0,0,0,22.227-.671" transform="translate(-326.74 -127.972)"/>
            </g>
          </g>
        </g>
        <path id="Path_855" data-name="Path 855" d="M381.092,175.89c-10.549-42.617-18.348-56.829-31.159-56.664-3.738,4.42-2.706,17.768,3.206,25.87,0,0,13.177,27.486,15.28,37.257,1.848,8.584,3.942,19.383,3.809,26.762a5.322,5.322,0,0,1-1.466,3.511c-2.406,2.579-2.415,4.655-3.976,7.508-1.219,2.232-2.554,3.066-2.174,3.569a2.94,2.94,0,0,0,3.957.289,14.826,14.826,0,0,0,3-2.843,29.3,29.3,0,0,1-2.377,7.906c-2.7,6.03-2.046,9.106,6.187,6.959,5.16-1.346,8.4-5.594,9.173-17.853a93.706,93.706,0,0,0,.135-13.568c-1.1-11.626-1.895-21.844-3.591-28.7" transform="translate(162.939 53.939)" fill="#ffa8a7"/>
      </g>
    </g>
    <g id="Group_1808" data-name="Group 1808" transform="translate(0 0)">
      <g id="Group_1807" data-name="Group 1807" clip-path="url(#clip-path-2)">
        <path id="Path_856" data-name="Path 856" d="M308.059,260.531c1.128-41.475-2.236-51.415-13.4-59.013l-4.329,24.032s5.089,28.322,4.543,37.754c-.479,8.286-1.3,18.653-3.278,25.352a5.077,5.077,0,0,1-2.222,2.841c-2.844,1.758-3.992,3.565-6.134,5.782-1.677,1.735-3.107,2.168-2.886,2.719a2.774,2.774,0,0,0,3.538,1.238,19.441,19.441,0,0,0,4.035-2.163,25.293,25.293,0,0,1-4.132,7.021c-3.991,4.833-4.164,7.8,3.889,7.874,5.045.044,9.071-3.033,12.87-14.025a88.658,88.658,0,0,0,3.546-12.343c1.93-10.876,3.781-20.394,3.964-27.069" transform="translate(131.333 91.128)" fill="#b16668"/>
        <path id="Path_857" data-name="Path 857" d="M283.681,199.412c5.332-.764,12.58.341,17.261,8.617s5.83,22.515,6.363,36.672c0,0-9.3,7.688-20.456,3.909Z" transform="translate(132.906 90.085)" fill="#27debf"/>
        <g id="Group_1803" data-name="Group 1803" transform="translate(416.587 289.295)" opacity="0.1">
          <g id="Group_1802" data-name="Group 1802">
            <g id="Group_1801" data-name="Group 1801" clip-path="url(#clip-path-15)">
              <path id="Path_858" data-name="Path 858" d="M283.681,199.412c5.332-.764,12.58.341,17.261,8.617s5.83,22.515,6.363,36.672c0,0-9.3,7.688-20.456,3.909Z" transform="translate(-283.681 -199.21)"/>
            </g>
          </g>
        </g>
        <path id="Path_859" data-name="Path 859" d="M302.128,361.094c.846.317,1.061,1.911,1.188,5.08.1,2.4.617,6.586-2.225,7.422s-7,.408-8.826-1.853c-2.274-2.821-3.81-5.305-7.055-8.748-2.814-2.987-5.859-5.774-6.994-9.963-1.027-3.785-.172-5.427,2.441-6.528,3.591-1.513,9.234,3.432,12.05,4.211,2.423.671,8.574,10.062,9.421,10.378" transform="translate(130.146 156.52)" fill="#263238"/>
        <path id="Path_860" data-name="Path 860" d="M297.866,354.881v3.893s-4.094,3.109-9.948.266c-.173-.376-1.034-5.568-1.034-5.568Z" transform="translate(134.408 159.797)" fill="#b16668"/>
        <path id="Path_861" data-name="Path 861" d="M286.636,371.911a65.376,65.376,0,0,1,1.739,6.345c.483,2.352,1.176,6.285.342,8.055s-4.085,2.911-9.124,2.873c-3.265-.025-8.353,2.166-11.837,4.089-3.6,1.985-11.079,2.775-14.885,2.333-4.486-.521-9.132-3.091-9.856-4.928s.238-3.742,10.806-8.193c.1-.041,14.692-4.733,19.807-10.312Z" transform="translate(113.754 168.13)" fill="#263238"/>
        <path id="Path_862" data-name="Path 862" d="M276.808,369.013s-.015,2.888,0,4.539-1.958,4.109-7.062,3.929c-3.585-.126-6.088-1.079-5.946-4v-4.208Z" transform="translate(123.583 166.82)" fill="#b16668"/>
        <path id="Path_863" data-name="Path 863" d="M315.883,350.779a104.764,104.764,0,0,0-4.649-20.269s1.406-17.487,2.08-34.068c.729-17.908-.038-40.42.306-44.887,0,0-58.461-11.694-59.5,9.009s2.308,73.4,3,82.5S259.4,360.2,261.3,374.94c1.876,14.548,7.135,48.9,7.135,48.9,6.679,3.569,13.008-.263,13.008-.263s4.114-41.4,3.682-51.888a88.723,88.723,0,0,0-4.026-22.905s1.109-17.07,2.087-31.917,2.015-21.982,2.243-28.441l1.259-.616s1.281,25.616,1.973,34.711,2.155,17.815,4.816,34.708c2.309,14.654,9.186,45.661,9.186,45.661,6.679,3.569,10.664-.468,10.664-.468s4.362-38.93,2.56-51.646" transform="translate(118.952 112.253)" fill="#37474f"/>
        <path id="Path_864" data-name="Path 864" d="M275.368,280.017s14.181-6.908,21.28-13.138c0,0-6.591,9.179-15.242,13.249,0,0-3.077,31.822-3.061,31.19l-1.777-31.348Z" transform="translate(129.009 120.665)" fill="#263238"/>
        <path id="Path_865" data-name="Path 865" d="M266.775,196l3.459,18.821,17.2-1.241-3.612-21.336Z" transform="translate(124.98 86.937)" fill="#b16668"/>
        <path id="Path_866" data-name="Path 866" d="M311.613,209c-1.7-5.118-8.269-10.688-14.842-9.48q-18.113,3.323-28.783,7.1c-6.016,2.124-11.5,7.265-12,26.83,0,0-2.017,45.61-2.052,54.431,15.11,5.911,30.823,5.728,39.509,3.852,18.081-3.9,20.262-11.319,20.262-11.319s.234-32.8-.309-46.963c-.46-12.035-.621-20.941-1.79-24.455" transform="translate(118.963 90.147)" fill="#27debf"/>
        <path id="Path_867" data-name="Path 867" d="M258.977,179.065s-4.361,6.873-3.832,7.528,3.866,1.18,3.866,1.18Z" transform="translate(119.507 80.981)" fill="#b16668"/>
        <path id="Path_868" data-name="Path 868" d="M269.907,166.3c-9.095,2.11-11.642,6.139-12.176,20.507-.558,15.013,1.1,19.692,3.136,21.667,1.378,1.331,8.857,1.413,12.605.3,4.69-1.392,15.271-5.365,20.095-13.018,5.674-9,6.943-21.064.541-25.859-9.011-6.746-20.5-4.456-24.2-3.6" transform="translate(120.689 74.728)" fill="#b16668"/>
        <path id="Path_869" data-name="Path 869" d="M270.222,196.8c3.086-2.452,2.81-4.035,2.81-4.035-2.214,2.043-10.405,3.8-13.2,3.273,1.14,1.1,6.464,1.343,10.39.762" transform="translate(121.725 87.171)" fill="#9a4a4d"/>
        <path id="Path_870" data-name="Path 870" d="M258.339,172.638c2.669,4.517,8.462,6.676,8.462,6.676,1.745,1.964.783,9.623,3.853,10.84,0,0,1.319-5.575,6.06-4.984,4.772.6,5.551,6.576,2.637,10.282s-5.74,2.375-5.74,2.375.328,7.917,3.979,12.324c0,0,4.071,1.2,11.467-.528,4.545-1.064,10.876-6.852,13.456-12.889,5.457-12.771,5.6-24.157-2.645-27.385-1.015-5.806-5.715-8.314-11.032-9.4-11.446-2.332-18.824,4.73-27.636,4.116-5.044-.351-5.987,3.278-2.86,8.571" transform="translate(120.181 72.129)" fill="#263238"/>
        <path id="Path_871" data-name="Path 871" d="M286.317,169.111l5.393-3.307a3.193,3.193,0,0,0-4.368-1.013,3.114,3.114,0,0,0-1.025,4.321" transform="translate(133.917 74.317)" fill="#263238"/>
        <path id="Path_872" data-name="Path 872" d="M292.7,204.3s-8.547,1.561-13.015,8.244-23.787,30.631-23.787,30.631-27.794-13.75-29.162-15.38-.6-4.925-.223-6.74,1-5.844,1.407-6.976c.715-1.976-2.243-1.442-3.985.405-1.785,1.892-2.516,5.458-3.387,6.079s-7.482-6.9-10.693-10.526-4.713-6.168-6.865-4.671c-1.55,1.079-.555,3.233,1.746,6.342a39.92,39.92,0,0,1,2.971,4.118c.276.556-.573,1-.911,1.3-.621.552-1.729,1.453-1.807,2.316a7.48,7.48,0,0,1-.087,1.408c-.3,1.034-1.6,1.52-1.961,2.534-.264.732.028,1.554-.122,2.317-.1.494-.37.938-.46,1.432a3.41,3.41,0,0,0,1.028,2.67c2.255,2.651,5.338,3.666,8.293,5.282,2.457,1.344,4.994,1.933,7.823,3.177s36.15,25.586,41.345,22.75S292.7,227.4,292.7,227.4c7.741-12.678,0-23.093,0-23.093" transform="translate(94.725 92.386)" fill="#b16668"/>
        <path id="Path_873" data-name="Path 873" d="M276.139,203.618c-3.676.418-8.826-.256-16.026,7.389s-16.205,20.613-16.205,20.613a20.277,20.277,0,0,0,16.116,15s12.61-12.77,16.116-19.8,4.329-18.454,0-23.2" transform="translate(114.26 92.077)" fill="#27debf"/>
        <g id="Group_1806" data-name="Group 1806" transform="translate(358.17 295.696)" opacity="0.1">
          <g id="Group_1805" data-name="Group 1805">
            <g id="Group_1804" data-name="Group 1804" clip-path="url(#clip-path-16)">
              <path id="Path_874" data-name="Path 874" d="M276.139,203.618c-3.676.418-8.826-.256-16.026,7.389s-16.205,20.613-16.205,20.613a20.277,20.277,0,0,0,16.116,15s12.61-12.77,16.116-19.8,4.329-18.454,0-23.2" transform="translate(-243.909 -203.619)"/>
            </g>
          </g>
        </g>
      </g>
    </g>
  </g>
</svg>
