<svg xmlns="http://www.w3.org/2000/svg" width="100" height="100" viewBox="0 0 100 100">
  <g id="ICON" transform="translate(-3 -3)">
    <path id="Path_943" data-name="Path 943" d="M15.069,23.69h-6.9A5.174,5.174,0,0,0,3,28.862v20.69a1.724,1.724,0,1,0,3.448,0V28.862a1.725,1.725,0,0,1,1.724-1.724h6.9V63.345a5.172,5.172,0,0,0,5.172,5.172H87.483a5.174,5.174,0,0,0,5.172-5.172V47.828a1.724,1.724,0,1,0-3.448,0V63.345a1.725,1.725,0,0,1-1.724,1.724H20.241a1.725,1.725,0,0,1-1.724-1.724V8.172a1.725,1.725,0,0,1,1.724-1.724H87.483a1.725,1.725,0,0,1,1.724,1.724V40.931a1.724,1.724,0,1,0,3.448,0V27.138h5.172a1.725,1.725,0,0,1,1.724,1.724v43.1H6.448V56.448a1.724,1.724,0,0,0-3.448,0V80.586a5.174,5.174,0,0,0,5.172,5.172h6.9a1.724,1.724,0,0,0,0-3.448h-6.9a1.725,1.725,0,0,1-1.724-1.724V75.414h93.1v5.172a1.725,1.725,0,0,1-1.724,1.724H21.966a1.724,1.724,0,1,0,0,3.448H43.7c-.276,4.624-1.474,10.6-5.891,13.793H34.9a1.724,1.724,0,0,0,0,3.448H71.1a1.724,1.724,0,1,0,0-3.448H68.191c-4.417-3.2-5.616-9.169-5.891-13.793H97.828A5.174,5.174,0,0,0,103,80.586V28.862a5.174,5.174,0,0,0-5.172-5.172H92.655V8.172A5.172,5.172,0,0,0,87.483,3H20.241a5.172,5.172,0,0,0-5.172,5.172ZM58.852,85.759h-11.7c-.267,4.364-1.353,9.793-4.457,13.793H63.309C60.205,95.552,59.119,90.121,58.852,85.759ZM48.572,53H46.966a1.724,1.724,0,1,0,0,3.448h.314l-1.066,2.843a1.724,1.724,0,1,0,3.228,1.21l1.521-4.053h4.076L56.559,60.5a1.724,1.724,0,1,0,3.228-1.21l-1.066-2.843h.314a1.724,1.724,0,0,0,0-3.448H57.428l-2.814-7.5a1.723,1.723,0,0,0-3.228,0L48.572,53Zm3.683,0h1.49L53,51.014ZM24.195,35.253,27.643,38.7a1.722,1.722,0,0,0,2.438,0l6.84-6.838a1.725,1.725,0,1,0-2.44-2.44l-5.619,5.621-2.229-2.229a1.724,1.724,0,1,0-2.438,2.438Zm20.184,3.953H68.517a1.724,1.724,0,1,0,0-3.448H44.379a1.724,1.724,0,1,0,0,3.448Zm0-6.9H80.586a1.724,1.724,0,1,0,0-3.448H44.379a1.724,1.724,0,1,0,0,3.448Zm0-10.345H68.517a1.724,1.724,0,0,0,0-3.448H44.379a1.724,1.724,0,1,0,0,3.448ZM24.195,18.012l3.448,3.448a1.722,1.722,0,0,0,2.438,0l6.84-6.838a1.725,1.725,0,1,0-2.44-2.44L28.862,17.8l-2.229-2.229a1.724,1.724,0,1,0-2.438,2.438Zm20.184-2.943H80.586a1.724,1.724,0,1,0,0-3.448H44.379a1.724,1.724,0,1,0,0,3.448Z" transform="translate(0 0)" fill="#968fe1" fill-rule="evenodd"/>
  </g>
</svg>
