<svg xmlns="http://www.w3.org/2000/svg" width="70" height="70" viewBox="0 0 70 70">
  <g id="instagram-icon" transform="translate(143 -145)">
    <path id="Path_61" data-name="Path 61" d="M-108,145a35,35,0,0,0-35,35,35,35,0,0,0,35,35,35,35,0,0,0,35-35A35,35,0,0,0-108,145Zm21.848,56.834a30.562,30.562,0,0,1-9.816,6.617A30.606,30.606,0,0,1-108,210.871a30.95,30.95,0,0,1-12.031-2.42,30.859,30.859,0,0,1-9.816-6.617,30.563,30.563,0,0,1-6.617-9.816A30.6,30.6,0,0,1-138.9,180a30.95,30.95,0,0,1,2.42-12.031,30.858,30.858,0,0,1,6.617-9.816,31.034,31.034,0,0,1,9.83-6.631A30.95,30.95,0,0,1-108,149.1a30.95,30.95,0,0,1,12.031,2.42,30.858,30.858,0,0,1,9.816,6.617,30.563,30.563,0,0,1,6.617,9.816,30.606,30.606,0,0,1,2.42,12.031,30.95,30.95,0,0,1-2.42,12.031A30.858,30.858,0,0,1-86.152,201.834Z" transform="translate(0 0)" fill="#4338ca"/>
    <path id="Path_62" data-name="Path 62" d="M17.527,273H-7.127a7.78,7.78,0,0,0-7.773,7.772V305.44a7.78,7.78,0,0,0,7.773,7.772H17.527A7.78,7.78,0,0,0,25.3,305.44V280.757A7.8,7.8,0,0,0,17.527,273Zm2.23,4.632h.9v6.815l-6.8.016-.016-6.814Zm-20.3,11.337a7.04,7.04,0,0,1,11.463,0,6.975,6.975,0,0,1,1.335,4.13,7.066,7.066,0,1,1-12.8-4.13Zm21.922,16.455a3.853,3.853,0,0,1-3.847,3.847H-7.127a3.853,3.853,0,0,1-3.847-3.847V288.969h6a10.939,10.939,0,0,0-.817,4.13,10.992,10.992,0,1,0,21.168-4.13h6Z" transform="translate(-113.188 -113.1)" fill="#4338ca"/>
  </g>
</svg>
