<svg xmlns="http://www.w3.org/2000/svg" width="70" height="70" viewBox="0 0 70 70">
  <g id="linkedin--icon" transform="translate(143 -145)">
    <path id="Path_680" data-name="Path 680" d="M-108,145a35,35,0,0,0-35,35,35,35,0,0,0,35,35,35,35,0,0,0,35-35A35,35,0,0,0-108,145Zm21.848,56.834a30.563,30.563,0,0,1-9.816,6.617A30.606,30.606,0,0,1-108,210.871a30.95,30.95,0,0,1-12.031-2.42,30.858,30.858,0,0,1-9.816-6.617,30.562,30.562,0,0,1-6.617-9.816A30.6,30.6,0,0,1-138.9,180a30.95,30.95,0,0,1,2.42-12.031,30.858,30.858,0,0,1,6.617-9.816,31.035,31.035,0,0,1,9.83-6.631A30.95,30.95,0,0,1-108,149.1a30.95,30.95,0,0,1,12.031,2.42,30.858,30.858,0,0,1,9.816,6.617,30.563,30.563,0,0,1,6.617,9.816,30.606,30.606,0,0,1,2.42,12.031,30.95,30.95,0,0,1-2.42,12.031A30.858,30.858,0,0,1-86.152,201.834Z" transform="translate(0 0)" fill="#4338ca"/>
    <rect id="Rectangle_515" data-name="Rectangle 515" width="5.848" height="18.715" transform="translate(-124.328 174.609)" fill="#4338ca"/>
    <path id="Path_681" data-name="Path 681" d="M-11.526,273a3.279,3.279,0,0,0-3.574,3.246,3.247,3.247,0,0,0,3.492,3.246h.047A3.262,3.262,0,0,0-8,276.246,3.264,3.264,0,0,0-11.526,273Z" transform="translate(-110.078 -110.197)" fill="#4338ca"/>
    <path id="Path_682" data-name="Path 682" d="M84.21,346.9c-3.352,0-5.449,1.828-5.836,3.117v-2.941H71.8c.082,1.559,0,18.715,0,18.715h6.574V355.677a4.423,4.423,0,0,1,.141-1.535,3.343,3.343,0,0,1,3.164-2.3c2.285,0,3.316,1.734,3.316,4.266v9.68h6.633V355.384C91.628,349.6,88.37,346.9,84.21,346.9Z" transform="translate(-183.362 -172.484)" fill="#4338ca"/>
  </g>
</svg>
