<svg xmlns="http://www.w3.org/2000/svg" width="126" height="93" viewBox="0 0 126 93">
  <g id="person-combination-svgrepo-com" transform="translate(0 -68.437)">
    <path id="Path_940" data-name="Path 940" d="M39.072,146.75a3.381,3.381,0,0,0,2.628-2.491c-.139-1.108-.779-1.557-.988-3.571-.244-2.345,1.713-7.954,2.3-8.954-.079-.191-.161-.36-.239-.557-2.728-1.73-5.506-4.86-6.783-10.516a11.619,11.619,0,0,1,1.517-8.748s-1.85-12.909.755-21.34c-2.434-1.172-5.085-.974-8.718-.611-2.788.279-3.184.872-5.325.561a19.391,19.391,0,0,1-5.045-1.4c-.345-.172-3.582,2.7-4.483,5.045a27.267,27.267,0,0,0-1.364,16.377c-.024.395-.056.788-.056,1.187l.664,2.823c0,.03,0,.058,0,.086a5.38,5.38,0,0,0-1.86,5.218c.949,4.2,2.992,5.9,5,6.638,1.335,3.765,2.629,6.142,4.14,7.74a20.9,20.9,0,0,1,.475,6.454C20.673,150.513,0,145.338,0,162.587c0,2.259,6.434,5.945,22.019,7.006a7.417,7.417,0,0,1-.077-1.011C21.942,153.114,32,148.927,39.072,146.75Z" transform="translate(0 -15.551)" fill="#968fe1"/>
    <path id="Path_941" data-name="Path 941" d="M358.371,142.4a20.867,20.867,0,0,1,.474-6.449c1.514-1.6,2.808-3.98,4.143-7.746,2.011-.738,4.053-2.441,5-6.638a5.307,5.307,0,0,0-1.634-5.008c.952-3.189,4.693-17.966-6.544-20.963-3.737-4.67-7.006-4.484-12.612-3.924-2.788.279-3.184.872-5.324.561-.469-.068-.913-.153-1.341-.244a17.167,17.167,0,0,1,1.15,1.758c3.751,6.7,2.761,15.19,1.582,20.374a11.65,11.65,0,0,1,1.23,8.252c-1.277,5.652-4.054,8.781-6.78,10.512a1.564,1.564,0,0,0,.015,1.737,5.4,5.4,0,0,0,1.147,1.323,20.905,20.905,0,0,1,.474,6.454c-.2,1.946-3.558,3.571-2.611,4.357.931.392,2.011.8,3.223,1.247,6.948,2.551,18.576,6.822,18.576,22.29a7.386,7.386,0,0,1-.072.982c15.281-1.1,21.6-4.738,21.6-6.977C380.064,147.048,359.391,152.224,358.371,142.4Z" transform="translate(-254.064 -17.261)" fill="#968fe1"/>
    <path id="Path_942" data-name="Path 942" d="M158.2,127.817a24.4,24.4,0,0,1,.539-7.427c1.719-1.84,3.193-4.58,4.709-8.917,2.285-.85,4.607-2.81,5.684-7.642a6.168,6.168,0,0,0-1.856-5.766c1.08-3.672,5.331-20.685-7.438-24.135-4.247-5.378-7.962-5.163-14.332-4.517-3.169.321-3.619,1-6.052.645a21.842,21.842,0,0,1-5.733-1.613c-.392-.2-4.071,3.108-5.1,5.808a31.8,31.8,0,0,0-1.549,18.855c-.027.454-.065.907-.065,1.366l.757,3.25c0,.033,0,.065,0,.1a6.237,6.237,0,0,0-2.113,6.007c1.077,4.834,3.4,6.794,5.686,7.643,1.517,4.335,2.987,7.074,4.706,8.914a24.372,24.372,0,0,1,.54,7.429c-1.159,11.311-24.652,5.353-24.652,25.214,0,3.063,10.13,8.4,35.458,8.4s35.458-5.342,35.458-8.4C182.852,133.17,159.36,139.128,158.2,127.817Zm-14.918,30.332-6.43-26.459,7.91,3.335-.425,3.872,1.257-.028Zm8.851,0-2.312-19.28,1.257.028-.425-3.872,7.91-3.335Z" transform="translate(-84.185)" fill="#968fe1"/>
  </g>
</svg>
