<svg id="Question-Icon" xmlns="http://www.w3.org/2000/svg" width="100" height="100" viewBox="0 0 100 100">
  <g id="Ellipse_64" data-name="Ellipse 64" fill="#146030" stroke="#fff" stroke-width="8">
    <circle cx="50" cy="50" r="50" stroke="none"/>
    <circle cx="50" cy="50" r="46" fill="none"/>
  </g>
  <g id="question" transform="translate(-13.986 18.471)">
    <path id="Path_784" data-name="Path 784" d="M63.419,0C58.351-.012,49.125,4.866,48.833,9.2s.591,4.6,1,4.841h4.758c1.087-2.455,2.411-3.89,5.884-3.86s7.283,4.374,5.676,8.222-3.093,5.188-5.071,9.348a18.7,18.7,0,0,0-.042,15.671l5.864.1c-1.451-7.459,6.231-14.105,9.286-18.7s3.345-6.342,3.38-10.141A14.55,14.55,0,0,0,75.4,4.549C72.556,1.616,68.487.012,63.419,0Zm.292,48.391a7.105,7.105,0,1,0,7.095,7.095A7.091,7.091,0,0,0,63.711,48.391Z" transform="translate(0 0)" fill="#fff"/>
  </g>
</svg>
