<svg xmlns="http://www.w3.org/2000/svg" xmlns:xlink="http://www.w3.org/1999/xlink" width="118" height="118" viewBox="0 0 118 118">
  <defs>
    <filter id="Ellipse_63" x="0" y="0" width="118" height="118" filterUnits="userSpaceOnUse">
      <feOffset dy="3" input="SourceAlpha"/>
      <feGaussianBlur stdDeviation="3" result="blur"/>
      <feFlood flood-opacity="0.161"/>
      <feComposite operator="in" in2="blur"/>
    </filter>
    <filter id="Ellipse_63-2" x="0" y="0" width="118" height="118" filterUnits="userSpaceOnUse">
      <feOffset dy="3" input="SourceAlpha"/>
      <feGaussianBlur stdDeviation="3" result="blur-2"/>
      <feFlood flood-opacity="0.161" result="color"/>
      <feComposite operator="out" in="SourceGraphic" in2="blur-2"/>
      <feComposite operator="in" in="color"/>
      <feComposite operator="in" in2="SourceGraphic"/>
    </filter>
  </defs>
  <g id="Sandbox-icon" transform="translate(9 6)">
    <g data-type="innerShadowGroup">
      <g transform="matrix(1, 0, 0, 1, -9, -6)" filter="url(#Ellipse_63)">
        <g id="Ellipse_63-3" data-name="Ellipse 63" transform="translate(9 6)" fill="#a95ea3" stroke="#fff" stroke-width="8">
          <circle cx="50" cy="50" r="50" stroke="none"/>
          <circle cx="50" cy="50" r="46" fill="none"/>
        </g>
      </g>
      <circle id="Ellipse_63-4" data-name="Ellipse 63" cx="50" cy="50" r="50" fill="#a95ea3"/>
      <g transform="matrix(1, 0, 0, 1, -9, -6)" filter="url(#Ellipse_63-2)">
        <circle id="Ellipse_63-5" data-name="Ellipse 63" cx="50" cy="50" r="50" transform="translate(9 6)" fill="#fff"/>
      </g>
      <g id="Ellipse_63-6" data-name="Ellipse 63" fill="none" stroke="#fff" stroke-width="8">
        <circle cx="50" cy="50" r="50" stroke="none"/>
        <circle cx="50" cy="50" r="46" fill="none"/>
      </g>
    </g>
    <g id="settings-check" transform="translate(4.435 6)">
      <path id="Path_781" data-name="Path 781" d="M73.515,87.031A13.515,13.515,0,1,1,87.031,73.515,13.371,13.371,0,0,1,73.515,87.031Zm0-22.526a8.812,8.812,0,1,0,6.432,2.579A8.812,8.812,0,0,0,73.515,64.505Z" transform="translate(-28.378 -29.979)" fill="#fff"/>
      <path id="Path_782" data-name="Path 782" d="M75.108,32.372l-5.316-9.208a4.5,4.5,0,0,0-5.348-2.014L58.962,23A24.873,24.873,0,0,0,56.006,21.3l-1.133-5.674A4.505,4.505,0,0,0,50.454,12H39.822a4.505,4.505,0,0,0-4.42,3.622L34.269,21.3a24.7,24.7,0,0,0-2.989,1.7L25.829,21.15a4.5,4.5,0,0,0-5.343,2.014L15.17,32.372a4.505,4.505,0,0,0,.926,5.636l4.35,3.823c-.038.568-.086,1.131-.086,1.705s.023,1.156.063,1.725l-4.325,3.8a4.505,4.505,0,0,0-.93,5.636l5.316,9.208a4.5,4.5,0,0,0,5.348,2.016l5.483-1.856a24.719,24.719,0,0,0,2.955,1.71L35.4,71.45a4.505,4.505,0,0,0,4.42,3.622h9.821V70.567H39.822l-1.6-8a20.487,20.487,0,0,1-6.071-3.541l-7.765,2.626-5.316-9.208,6.138-5.395a20.106,20.106,0,0,1-.016-7.046l-6.122-5.381,5.316-9.208,7.72,2.613A20.341,20.341,0,0,1,38.222,24.5l1.6-8H50.454l1.6,8a20.494,20.494,0,0,1,6.071,3.541l7.765-2.626L71.2,34.625l-6.3,5.523,2.969,3.388,6.307-5.528a4.505,4.505,0,0,0,.93-5.636Z" transform="translate(0 0)" fill="#fff"/>
      <path id="Path_783" data-name="Path 783" d="M123.01,136.132l-5.834-5.834L114,133.474l9.01,9.01,15.768-15.768L135.6,123.54Z" transform="translate(-62.104 -69.665)" fill="#fff"/>
    </g>
  </g>
</svg>
