<svg xmlns="http://www.w3.org/2000/svg" width="70" height="70" viewBox="0 0 70 70">
  <g id="youtube-icon" transform="translate(-1373.131 -4788.5)">
    <path id="Path_406" data-name="Path 406" d="M70,35A35,35,0,1,0,35,70,35,35,0,0,0,70,35ZM3.182,35A31.818,31.818,0,1,1,35,66.818,31.818,31.818,0,0,1,3.182,35Z" transform="translate(1373.131 4788.5)" fill="#4338ca"/>
    <path id="youtube-svgrepo-com" d="M15.461,13.154a2.4,2.4,0,0,0,2.061-.991,3.828,3.828,0,0,0,.543-2.294v-3.4a3.758,3.758,0,0,0-.543-2.274,2.409,2.409,0,0,0-2.061-.989,2.376,2.376,0,0,0-2.038.989,3.768,3.768,0,0,0-.545,2.276v3.4a3.869,3.869,0,0,0,.545,2.294,2.376,2.376,0,0,0,2.038.989ZM14.626,6.12c0-.893.272-1.34.836-1.34.584,0,.836.447.836,1.34V10.2c0,.9-.252,1.36-.836,1.36-.563,0-.836-.467-.836-1.36Zm5.032,6.315a4.916,4.916,0,0,1-.154-1.456V3.322h1.768v7.13a4.124,4.124,0,0,0,.02.682c.039.272.174.426.408.426.348,0,.717-.272,1.106-.836v-7.4h1.768v9.7H22.806V11.949a2.784,2.784,0,0,1-2,1.2,1.1,1.1,0,0,1-1.145-.719Zm6.724,11.757v.893H24.633v-.893c0-.875.293-1.323.875-1.323S26.382,23.317,26.382,24.192ZM7.377,3.634C6.951,2.429,6.525,1.2,6.113,0H8.176L9.554,5.11,10.875,0h1.983L10.507,7.753v5.266H8.565V7.753A31.018,31.018,0,0,0,7.377,3.634Zm22.385,14.36a3.654,3.654,0,0,0-3.109-2.837,99.745,99.745,0,0,0-10.786-.389A99.178,99.178,0,0,0,5.1,15.157a3.675,3.675,0,0,0-3.126,2.837,31.731,31.731,0,0,0-.506,6.8,30.559,30.559,0,0,0,.506,6.8,3.612,3.612,0,0,0,3.109,2.818,95.2,95.2,0,0,0,10.784.408,95.258,95.258,0,0,0,10.786-.408,3.636,3.636,0,0,0,3.109-2.818,31.819,31.819,0,0,0,.506-6.8,30.59,30.59,0,0,0-.508-6.8ZM9.69,19.956H7.613V31.012H5.669V19.956H3.627V18.129H9.69Zm5.248,11.056H13.206V29.963a2.824,2.824,0,0,1-1.983,1.186A1.065,1.065,0,0,1,10.1,30.43a4.682,4.682,0,0,1-.156-1.417v-7.6h1.731v7.073a4.749,4.749,0,0,0,.018.682c.041.27.176.408.408.408.352,0,.721-.27,1.108-.815V21.418h1.731v9.594Zm6.608-2.876a6.893,6.893,0,0,1-.176,1.942,1.367,1.367,0,0,1-1.38,1.069,2.4,2.4,0,0,1-1.809-1.069v.934H16.453V18.129h1.727v4.217A2.359,2.359,0,0,1,19.988,21.3a1.365,1.365,0,0,1,1.38,1.088,6.664,6.664,0,0,1,.176,1.923Zm6.567-1.594H24.633v1.69c0,.9.293,1.34.9,1.34a.747.747,0,0,0,.778-.7,10.5,10.5,0,0,0,.039-1.186h1.768v.254a7.567,7.567,0,0,1-.039,1.127,2.3,2.3,0,0,1-.408,1.049,2.409,2.409,0,0,1-2.1,1.03,2.467,2.467,0,0,1-2.1-.991,3.662,3.662,0,0,1-.563-2.255V24.54a3.712,3.712,0,0,1,.545-2.255,2.656,2.656,0,0,1,4.139,0,3.834,3.834,0,0,1,.526,2.255v2Zm-8.3-2.372v4.1c0,.875-.254,1.3-.758,1.3a1.249,1.249,0,0,1-.877-.426V23.3a1.244,1.244,0,0,1,.877-.428c.5,0,.758.447.758,1.3Z" transform="translate(1392.261 4805.266)" fill="#4338ca"/>
  </g>
</svg>
